<svg version="1.0" xmlns="http://www.w3.org/2000/svg" width="890.667" height="829.333"
    viewBox="0 0 668 622">
    <g fill="#000000">
        <path
            d="M278.5 92.7c-16.7 2.1-29.4 13.9-34.1 31.6-3.4 12.7-.8 38.9 5.7 57.6 1.6 4.6 2.9 8.9 2.9 9.6 0 .6-3.1 3.3-6.9 5.8-8.1 5.6-23 20.7-28.7 29.2-8.6 12.7-13.9 24.6-17 38-2.9 12.4-2.7 40 .4 51.5 4.6 17.3 17.1 38.4 30.1 50.8 14.7 14 36 24.8 56.8 28.8 10.7 2 75 2 85.5 0 36.9-7.2 66.6-30.1 82.5-63.5 13.1-27.8 12-66.6-2.9-93.8-10.5-19.3-29.3-38.4-47.7-48.5l-3.1-1.7 3-8.3c4.6-12.4 7-25.8 7.1-38.9.1-17.8-2.6-25.8-12.1-36.2-11.3-12.4-28.6-15.6-44.6-8.3-6.2 2.9-15 11.4-18.7 18.3-4 7.6-6.7 19.2-6.7 29.2 0 12.5-1.2 28.3-2.1 27.4-.4-.4-.9-8.9-1.2-18.8-.7-24.8-3.9-35-14.6-46.6-8.5-9.4-22-14.7-33.6-13.2zm14 21.7c5.3 2.9 10 9.4 12.5 17.2 1.7 5.6 2 9.4 2 24.4v17.8l-7.2 1.7c-11.7 2.9-15.8 5-15.8 8 0 5.3 5.8 13.5 9.4 13.5 1.2 0 5-1 8.6-2.1 4.2-1.4 10.4-2.3 17.6-2.6l11.1-.6 8 12.9c4.4 7.1 10.8 17.8 14.3 23.9 7.4 12.9 9.3 15.2 13 16 4.1.9 9.6-1.8 11.5-5.6 2.3-4.3 1.5-9.6-2.3-15.6-6.9-11-18.2-29.4-18.2-29.8 0-.2 1.5 0 3.3.4 1.7.5 5.7 1.4 8.7 2.1 25.4 5.9 52.8 26.2 64.8 47.9l3.2 5.8-14.8 4.2c-8.1 2.4-24.6 7.4-36.7 11.1-12.1 3.8-24.7 7.6-28 8.6-7.8 2.2-11.5 5.8-11.5 11.2 0 4.7 3.5 9.6 7.4 10.6 1.5.4 6.6-.7 13.3-2.8 30.1-9.6 70.1-21.6 74.4-22.3 2.4-.5 2.7-.2 3.7 5.3 4.5 22.4-3.6 50.4-20.3 70-7.3 8.5-19.9 18-31 23.4-17.6 8.4-18.4 8.5-63 8.5h-39l-9-2.8c-31.8-10.1-56-34.8-63.2-64.7-2.7-11.1-2.5-32.9.4-43 5.1-17.9 16.2-35.6 29.2-46.8 8.1-7 14.1-10.8 15-9.6 5 7.4 21 32 25.1 38.7 3 4.9 6.7 10 8.3 11.3 8.6 7.2 21.3-2.7 16.2-12.6-2.3-4.5-30.6-46.4-35.9-53.3-3.6-4.5-5.4-8.3-8.1-17-12.5-39.6-9.3-61.1 10-65.8 4-1 8.1-.2 13 2.5zm88.5-.9c3.3 1.7 7.3 6.1 9.6 10.5 2.9 5.5 3.1 21.2.5 33-2.2 9.7-6.7 23-7.9 23-.4 0-4.2-1.1-8.4-2.4-4.3-1.3-11.8-3-16.7-3.7l-9-1.3-.7-4.4c-1-6.5.5-31.5 2.2-37.2 4.6-15.6 18.5-23.5 30.4-17.5z" />
        <path
            d="M281.5 293.9c-6.1 2.8-7.8 5.3-8.2 11.9-.5 7.3 1.9 11.5 8.2 14.3 10.2 4.5 21.5-3.7 20.2-14.8-.6-5.7-3-9.1-8-11.4-5.2-2.3-7.2-2.3-12.2 0zM115 455.7c-3.8 1.3-4 3.1-4 28.4 0 13.6.4 25.9 1 27.3 1.8 4.7 7.7 5.8 11.4 2 1.3-1.3 1.6-4.2 1.6-16.2v-14.7l2.5 3c1.4 1.6 7 9 12.5 16.2 6.6 8.7 10.8 13.5 12.4 13.9 2.4.6 6.5-1 7.8-3 .4-.6.8-12.9.8-27.4 0-24.9-.1-26.3-2-28.2-1.1-1.1-3.3-2-4.8-2-4.2 0-6.2 2.8-6.2 8.7 0 2.7-.3 9.7-.6 15.5l-.7 10.6-4.2-5.6c-2.3-3.2-7.4-10.3-11.3-15.9-8.9-12.6-11.2-14.4-16.2-12.6zM317.9 455.9c-11.8 3.6-20.4 14.4-21.6 27.4-.6 7.4.5 12.2 4.7 19.1 6.4 10.4 17.1 15.2 28.7 12.8 6.1-1.3 11.6-4.5 13.4-7.9 1-1.8.8-2.7-1-5.2-2.6-3.7-5.6-4-10.3-1.1-10.7 6.5-22.6-2.8-21.6-17.1.9-12.1 11.7-18.7 21.4-13 4.5 2.7 5.6 2.6 9.3-.5 3.9-3.2 3.9-5.2.1-9.1-5.1-5.2-15.6-7.6-23.1-5.4zM434.9 457c-3.9 2-6.9 7-6.9 11.3 0 1.9-.6 2.6-2.2 2.9-1.4.2-2.6 1.4-3.2 3-1.3 3.8.3 8.2 3.2 8.6 2.2.3 2.2.6 2.2 14.8 0 13.1.2 14.6 2 16.4 2.4 2.4 4.8 2.5 7.8.4 2.1-1.5 2.2-2.1 2.2-16.9v-15.4l4.3-.3c4.1-.3 4.2-.4 4.5-4.1.4-4.7-1.1-6.7-4.9-6.7-2.4 0-2.9-.4-2.9-2.5 0-2.2.4-2.5 3.8-2.5 4.6 0 5.9-.8 6.7-4.2 1.6-6.2-8.5-9.1-16.6-4.8zM224.6 460.6c-1 .9-1.6 3.3-1.6 6 0 4.2-.1 4.4-3 4.4-2.4 0-3.3.6-4.1 2.7-1.6 4.1 0 7.6 3.9 8.8l3.2.9v11.1c0 8.8.4 11.7 1.8 14.4 3.8 7.1 14.4 9.4 18.4 4 2.9-3.9 1.6-7.6-3.2-8.9-2.1-.6-4.1-1.7-4.4-2.6-.3-.9-.6-5.6-.6-10.5V482h4.5c4 0 4.7-.3 5.6-2.7 2.1-5.7-1.4-9.7-7.4-8.6-2.6.5-2.7.4-2.7-3.6 0-6.1-1.4-8.1-5.5-8.1-1.8 0-4.1.7-4.9 1.6zM459 460.9c-.5 1.1-1 3.2-1 4.8 0 3.7-1 5-4 5.4-2.3.4-2.5.8-2.5 5.4 0 4.6.2 5 2.6 5.3l2.6.3.6 12.7c.6 11.9.8 12.8 3.5 16.1 3.2 3.9 7.8 5.6 12.9 4.6 7-1.3 8.5-9.8 1.8-11.1-1.9-.3-3.8-1.1-4.4-1.8-.9-1.1-1.5-7.7-1.2-15.9l.1-4.7h4c3.3 0 4.2-.4 5.1-2.4 2-4.4.4-7.5-4.6-8.8-4.4-1.2-4.5-1.3-4.5-5.3 0-5.1-1.3-6.5-6.2-6.5-2.7 0-4 .5-4.8 1.9zM392 470.9c-5 1.1-9.8 3.8-10.2 5.8-.6 2.4 1 7 2.6 7.6.7.3 3-.3 5.2-1.4 5.7-2.7 9.8-2.5 12.3.7 1.2 1.5 2.1 3 2.1 3.4 0 .4-4.2.9-9.4 1.2-7.6.3-9.9.8-11.6 2.3-3.7 3.3-5.3 7.4-4.7 12.2.8 7.7 5.2 11.7 13.9 12.9 3.6.5 5 .1 8.1-2 3.8-2.6 3.9-2.6 5.5-.7 2.7 3.2 6.4 3.6 9.6 1 2.4-1.9 2.7-2.6 2.1-5.8-.3-2-.9-8.6-1.3-14.6-.5-8.4-1.2-11.8-2.8-14.5-3.6-6.2-13.2-9.9-21.4-8.1zm9.5 26.5c1.6 1.2 1.8 1.8.7 4-2 4.5-9.7 4.9-11.9.6-1.1-2.2-1-2.7.8-4.3 2.5-2.1 7.8-2.2 10.4-.3zM500 471c-11.5 2.2-17.6 10.8-16.8 23.6.3 5 1 7.2 3.4 10.6 5.7 8.2 14.2 11.9 22.8 9.9 9.5-2.2 13-7.1 8.6-11.9-2.5-2.6-2.7-2.6-7.3-.7-5.7 2.4-9.9 1.9-13.1-1.3l-2.7-2.9 8.3-.6c4.6-.4 10.6-.7 13.4-.7 5.7 0 6.4-.7 6.4-6.6 0-6.7-5-14.8-11-17.8-3.5-1.8-7.9-2.4-12-1.6zm9.3 12.7c.9.9 1.7 2.4 1.7 3.5 0 1.6-.9 1.8-8 1.8-4.4 0-8-.4-8-.9 0-2.4 1.6-4.4 4.4-5.7 3.5-1.5 7.2-1 9.9 1.3zM546.6 471c-1.5.5-3.6 1.6-4.6 2.5-1.7 1.5-2 1.5-3.9-.4-2.5-2.5-3.9-2.6-6.9-.5-2.1 1.5-2.2 2-2.2 20.3 0 20.8.4 22.4 5.8 22.4 5.6 0 6.2-1.3 6.2-14.2 0-9.9.3-12.1 2.1-15 1.9-3.1 2.3-3.3 5.8-2.7 2.9.4 4.2.2 5.4-1.2 5.5-6 .4-13.5-7.7-11.2zM180.2 473.1c-11.5 5.7-15.5 19.9-8.7 31.4 3.1 5.3 9.7 10 15.5 11 5.1.9 13.9-1.7 18.1-5.2 4.2-3.6 7.9-11.6 7.9-17.3-.1-8.1-6.3-17.5-13.7-20.6-5-2.1-14.1-1.8-19.1.7zm17.4 12.3c2.8 2.8 3.4 4.2 3.4 7.6 0 8.2-9.5 13.9-15.8 9.4-4.9-3.4-6.5-10.4-3.5-15.4 3.5-6 10.8-6.7 15.9-1.6zM260.8 473c-7.8 4.2-12.9 14.8-11.3 24 1 5.8 5.7 12.4 11.1 15.6 8.4 4.9 22 3.2 25.5-3.2 1.1-2.2 1.1-2.9-.4-5.2-1.9-3.1-3.9-3.2-11-.7l-4.7 1.7-3.5-2.6c-1.9-1.5-3.5-3.1-3.5-3.5 0-.4 6-1.2 13.3-1.7l13.2-.9v-6.6c0-5.6-.4-7.2-2.8-10.6-3.9-5.7-9.1-8.3-16.3-8.3-3.8.1-7.2.8-9.6 2zm15.3 10.9c1.6 1.6 2.9 3.4 2.9 4 0 .7-3.1 1.1-8.5 1.1-8.8 0-10-.7-7.2-4.2 3.6-4.5 8.8-4.9 12.8-.9zM351.7 472.8c-1.5 1.6-1.7 4.6-1.7 21 0 18.6.1 19.1 2.2 20.6 3 2.1 5.4 2 7.8-.4 1.8-1.8 2-3.3 2-14 0-11.6.1-12.2 2.6-14.7 2.1-2.1 3.1-2.4 6.3-1.9 3.7.6 3.9.4 5.6-3.4 1.7-3.7 1.7-4.1.1-6.5-2.1-3.2-7.6-3.4-12.5-.4l-3.3 2-1.5-2c-1.8-2.6-5.4-2.7-7.6-.3z" />
    </g>
</svg>