<?xml version="1.0" standalone="no"?>
<!DOCTYPE svg PUBLIC "-//W3C//DTD SVG 20010904//EN"
 "http://www.w3.org/TR/2001/REC-SVG-20010904/DTD/svg10.dtd">
<svg version="1.0" xmlns="http://www.w3.org/2000/svg"
 width="1067.000000pt" height="981.000000pt" viewBox="0 0 1067.000000 981.000000"
 preserveAspectRatio="xMidYMid meet">

<g transform="translate(0.000000,981.000000) scale(0.100000,-0.100000)"
fill="#000000" stroke="none">
<path d="M2917 8563 c-54 -360 -61 -458 -62 -803 0 -381 13 -521 85 -880 60
-296 128 -527 265 -900 l27 -75 -89 -90 c-351 -353 -545 -782 -593 -1310 -22
-241 -6 -535 41 -752 50 -235 163 -507 284 -689 l62 -93 -111 -3 -111 -3 -3
-1098 -2 -1097 55 0 55 0 0 -32 0 -33 2562 2 2563 3 0 1067 0 1068 -52 3 -53
3 0 59 0 59 -45 3 -44 3 55 80 c71 102 183 333 223 455 78 245 110 428 118
690 14 474 -107 933 -343 1293 -86 131 -124 179 -251 308 l-104 106 42 104
c149 372 260 794 313 1189 54 400 47 834 -20 1270 -33 215 -28 202 -72 194
-82 -14 -364 -84 -452 -113 -433 -142 -813 -500 -1035 -978 -110 -235 -210
-572 -249 -833 l-12 -85 -35 1 c-19 0 -81 8 -139 17 -292 46 -636 43 -928 -7
-73 -12 -135 -20 -137 -17 -2 4 -13 60 -25 126 -95 534 -271 949 -536 1264
-232 277 -534 464 -917 565 -88 23 -284 66 -305 66 -5 0 -16 -48 -25 -107z
m4528 -488 c19 -142 22 -503 5 -670 -48 -491 -194 -1032 -401 -1487 -27 -59
-49 -113 -49 -120 1 -7 31 -35 68 -63 89 -67 270 -243 343 -332 106 -132 205
-318 261 -488 18 -57 58 -211 58 -227 0 -5 -1073 -8 -2385 -8 l-2385 0 0 28
c0 34 33 155 67 247 110 295 330 587 589 782 41 31 73 61 70 67 -2 6 -24 56
-49 111 -218 495 -350 1003 -402 1547 -17 175 1 690 26 729 6 10 16 10 51 0
66 -20 195 -84 283 -142 110 -72 303 -268 384 -389 211 -318 358 -795 412
-1335 6 -66 15 -123 18 -127 4 -4 54 6 111 23 128 37 207 54 370 80 162 27
581 37 756 20 143 -15 375 -60 499 -97 50 -15 102 -29 118 -32 27 -4 27 -4 27
50 0 29 7 110 15 178 63 512 189 912 382 1205 138 209 318 386 482 474 103 54
244 112 253 103 4 -4 14 -61 23 -127z m322 -3922 c-4 -102 -13 -202 -24 -253
l-18 -85 -2385 0 -2385 0 -17 100 c-10 55 -21 169 -24 253 l-7 152 2433 0
2433 0 -6 -167z m-182 -715 c4 -4 -10 -39 -31 -78 -29 -53 -40 -67 -42 -51 -2
12 -10 21 -18 21 -10 0 -14 -13 -14 -47 0 -39 -6 -55 -42 -100 -23 -30 -80
-90 -126 -134 l-85 -79 -1883 0 -1883 0 -58 48 c-95 80 -205 218 -272 343 -23
42 -38 79 -34 83 9 9 4479 3 4488 -6z m-4487 -600 l3 -97 -41 -11 c-138 -37
-172 -228 -55 -308 79 -55 161 -48 226 17 94 94 60 242 -66 287 l-30 11 -3
101 -3 102 2176 0 2175 0 0 -98 0 -98 -43 -11 c-55 -15 -92 -45 -117 -94 -81
-158 107 -326 251 -224 60 43 81 86 77 157 -5 68 -42 123 -99 147 l-39 16 0
103 0 102 150 0 150 0 0 -1070 0 -1070 -2535 0 -2535 0 0 1070 0 1070 178 -2
177 -3 3 -97z m152 -283 c0 -48 -24 -92 -63 -115 -57 -35 -67 -29 -67 43 0 81
22 104 98 106 30 1 32 -1 32 -34z m4370 4 c0 -45 -29 -98 -64 -120 -17 -10
-34 -19 -38 -19 -5 0 -8 34 -8 75 0 84 8 93 78 94 29 1 32 -2 32 -30z m-143
-145 c-2 -3 -12 -2 -21 2 -21 8 -21 56 2 97 l17 32 3 -64 c2 -35 1 -65 -1 -67z
m-4377 56 c0 -38 -4 -50 -15 -50 -17 0 -20 36 -5 74 14 39 20 32 20 -24z"/>
<path d="M4305 5336 c-115 -53 -171 -182 -133 -310 16 -55 101 -140 154 -155
100 -28 209 1 270 71 91 104 82 249 -23 350 -74 72 -174 88 -268 44z"/>
<path d="M6210 5351 c-137 -42 -210 -183 -168 -323 17 -57 78 -121 140 -148
171 -74 366 69 345 252 -19 156 -173 262 -317 219z"/>
<path d="M4080 1941 l0 -91 29 0 c17 0 32 3 34 8 3 4 7 43 9 87 l3 80 -38 3
-37 3 0 -90z"/>
<path d="M6230 1785 l0 -246 48 3 47 3 0 240 0 240 -47 3 -48 3 0 -246z"/>
<path d="M2950 2000 c0 -6 30 -70 68 -143 65 -128 67 -135 72 -222 l5 -90 50
0 50 0 5 95 c5 94 6 96 73 222 38 70 66 132 62 138 -3 5 -26 10 -51 10 l-45 0
-47 -101 -48 -102 -46 102 -47 101 -51 0 c-27 0 -50 -5 -50 -10z"/>
<path d="M7407 2003 c-3 -5 -2 -78 2 -163 l6 -155 40 0 40 0 8 150 c4 83 5
156 2 163 -5 13 -91 17 -98 5z"/>
<path d="M7587 2004 c-9 -9 -9 -146 -1 -247 l7 -77 38 0 38 0 6 53 c3 28 5
102 3 162 l-3 110 -40 3 c-23 2 -44 0 -48 -4z"/>
<path d="M5680 1931 c0 -37 -2 -41 -26 -41 -23 0 -25 -3 -22 -37 2 -31 7 -39
26 -41 21 -3 22 -7 22 -112 0 -88 3 -112 18 -129 19 -25 75 -40 112 -31 21 5
25 12 25 40 0 31 -3 35 -27 38 l-28 3 0 94 0 94 28 3 c24 3 27 7 26 38 0 30
-4 35 -27 38 -22 3 -26 9 -29 40 -3 37 -4 37 -50 40 l-48 3 0 -40z"/>
<path d="M3481 1890 c-78 -18 -121 -81 -121 -175 0 -110 61 -177 161 -177 87
1 151 58 164 146 13 87 -41 188 -108 201 -18 4 -39 8 -47 10 -8 1 -30 -1 -49
-5z m82 -97 c21 -25 30 -67 23 -108 -9 -44 -30 -65 -66 -65 -40 0 -60 32 -60
95 0 30 6 60 16 73 19 27 64 29 87 5z"/>
<path d="M4345 1892 c-11 -2 -26 -9 -34 -16 -11 -8 -15 -8 -18 2 -3 7 -22 12
-49 12 l-44 0 0 -176 0 -175 48 3 47 3 3 118 c3 116 3 118 28 127 14 6 36 10
50 10 22 0 24 4 24 44 0 46 -12 57 -55 48z"/>
<path d="M4541 1889 c-52 -16 -78 -37 -101 -83 -43 -91 -14 -208 63 -247 51
-26 126 -27 175 -1 43 22 51 50 23 76 -18 17 -22 17 -43 2 -37 -26 -93 -21
-118 12 l-22 27 109 5 108 5 -3 49 c-6 116 -90 184 -191 155z m89 -105 c6 -14
10 -27 10 -30 0 -2 -25 -4 -55 -4 -46 0 -55 3 -55 18 0 27 20 42 57 42 27 0
35 -5 43 -26z"/>
<path d="M5087 1889 c-16 -4 -34 -13 -41 -19 -10 -8 -15 -7 -20 5 -4 12 -17
15 -48 13 l-43 -3 0 -170 0 -170 49 0 48 0 -1 116 c-2 130 6 149 59 149 42 0
50 -23 50 -155 l0 -116 48 3 47 3 3 100 c2 55 0 119 -3 143 -11 77 -77 122
-148 101z"/>
<path d="M5398 1888 c-62 -16 -118 -98 -118 -173 0 -75 56 -157 117 -172 123
-29 213 44 213 174 -1 126 -95 202 -212 171z m96 -100 c10 -13 16 -43 16 -73
0 -62 -20 -95 -58 -95 -15 0 -32 4 -39 8 -35 22 -40 134 -7 167 23 23 70 19
88 -7z"/>
<path d="M5978 1888 c-105 -28 -152 -193 -82 -285 35 -46 77 -65 140 -64 55 0
100 17 124 46 12 14 10 20 -12 42 -25 24 -27 25 -49 9 -32 -22 -92 -21 -112 2
-32 36 -21 41 86 44 l102 3 -1 57 c-1 46 -7 65 -29 93 -39 52 -100 71 -167 53z
m86 -94 c31 -31 20 -44 -39 -44 -41 0 -55 4 -55 14 0 22 29 46 55 46 13 0 31
-7 39 -16z"/>
<path d="M6505 1891 c-72 -18 -113 -70 -122 -154 -14 -132 76 -219 201 -196
86 16 118 56 77 93 -18 17 -22 17 -43 2 -37 -26 -93 -21 -118 12 l-22 27 109
5 108 5 -2 54 c-2 30 -11 67 -21 84 -31 53 -105 83 -167 68z m71 -89 c6 -4 14
-17 18 -29 7 -22 5 -23 -48 -23 -47 0 -56 3 -56 18 0 10 5 23 12 30 13 13 57
16 74 4z"/>
<path d="M6840 1890 c-50 -9 -78 -26 -96 -61 -33 -65 3 -115 109 -149 59 -19
68 -25 65 -44 -2 -16 -11 -22 -40 -24 -30 -3 -40 1 -54 22 -13 20 -25 26 -55
26 -46 0 -54 -11 -37 -47 23 -48 73 -73 143 -73 75 0 124 28 139 77 18 66 -31
120 -125 137 -42 7 -64 28 -55 51 8 23 63 19 78 -5 10 -15 24 -20 55 -20 51 0
59 10 38 49 -25 49 -92 73 -165 61z"/>
<path d="M7161 1890 c-94 -22 -131 -112 -69 -170 12 -11 49 -28 82 -38 64 -19
92 -45 66 -62 -29 -18 -69 -11 -86 15 -13 20 -24 25 -60 25 -36 0 -44 -3 -44
-19 0 -25 35 -68 72 -87 39 -20 128 -20 169 1 17 10 37 31 45 51 28 67 -8 115
-108 145 -61 18 -69 23 -66 42 4 32 62 37 78 7 9 -18 19 -21 58 -18 41 3 47 6
44 23 -4 29 -67 85 -96 85 -13 0 -30 2 -38 4 -7 2 -28 0 -47 -4z"/>
<path d="M3737 1883 c-4 -3 -7 -60 -7 -125 0 -131 12 -176 54 -203 32 -21 100
-21 132 0 22 14 24 14 24 0 0 -13 10 -15 48 -13 26 2 46 6 45 11 -2 4 -3 81
-3 173 l0 165 -47 -3 -48 -3 -3 -125 c-3 -131 -6 -140 -53 -140 -44 0 -49 15
-49 147 l0 123 -43 0 c-24 0 -47 -3 -50 -7z"/>
<path d="M7417 1622 c-33 -37 -9 -82 43 -82 45 0 66 52 34 84 -21 21 -57 20
-77 -2z"/>
<path d="M7592 1628 c-7 -7 -12 -24 -12 -38 0 -34 17 -50 52 -50 18 0 33 8 44
25 15 23 15 27 0 50 -18 27 -63 34 -84 13z"/>
</g>
</svg>
